<mxfile host="app.diagrams.net" modified="2023-12-29T07:06:41.791Z" agent="Mozilla/5.0 (Macintosh; Intel Mac OS X 10_15_7) AppleWebKit/537.36 (KHTML, like Gecko) Chrome/120.0.0.0 Safari/537.36" etag="63MfrWnLopltmbCqBw_W" version="22.1.15" type="github">
  <diagram name="ページ1" id="V6qu97_7KY14BSP7jSDy">
    <mxGraphModel dx="1426" dy="826" grid="1" gridSize="10" guides="1" tooltips="1" connect="1" arrows="1" fold="1" page="1" pageScale="1" pageWidth="827" pageHeight="1169" math="0" shadow="0">
      <root>
        <mxCell id="0" />
        <mxCell id="1" parent="0" />
        <mxCell id="RpjhxnM2ucZRtsfWV6LS-1" value="Prox Mox" style="rounded=0;whiteSpace=wrap;html=1;" parent="1" vertex="1">
          <mxGeometry x="-170" y="370" width="440" height="40" as="geometry" />
        </mxCell>
        <mxCell id="RpjhxnM2ucZRtsfWV6LS-3" value="Management Cluster" style="rounded=0;whiteSpace=wrap;html=1;verticalAlign=top;fillColor=#dae8fc;strokeColor=#6c8ebf;" parent="1" vertex="1">
          <mxGeometry x="-170" y="220" width="90" height="140" as="geometry" />
        </mxCell>
        <mxCell id="RpjhxnM2ucZRtsfWV6LS-4" value="Cluster-API" style="rounded=0;whiteSpace=wrap;html=1;verticalAlign=top;" parent="1" vertex="1">
          <mxGeometry x="-160" y="270" width="70" height="80" as="geometry" />
        </mxCell>
        <mxCell id="RpjhxnM2ucZRtsfWV6LS-5" value="Workload Cluster" style="rounded=0;whiteSpace=wrap;html=1;verticalAlign=top;fillColor=#ffe6cc;strokeColor=#d79b00;" parent="1" vertex="1">
          <mxGeometry x="-60" y="220" width="230" height="140" as="geometry" />
        </mxCell>
        <mxCell id="RpjhxnM2ucZRtsfWV6LS-6" value="Master node" style="rounded=0;whiteSpace=wrap;html=1;verticalAlign=top;" parent="1" vertex="1">
          <mxGeometry x="-50" y="270" width="50" height="80" as="geometry" />
        </mxCell>
        <mxCell id="RpjhxnM2ucZRtsfWV6LS-7" value="Worker node1" style="rounded=0;whiteSpace=wrap;html=1;verticalAlign=top;" parent="1" vertex="1">
          <mxGeometry x="10" y="270" width="50" height="80" as="geometry" />
        </mxCell>
        <mxCell id="RpjhxnM2ucZRtsfWV6LS-8" value="Worker2 node" style="rounded=0;whiteSpace=wrap;html=1;verticalAlign=top;" parent="1" vertex="1">
          <mxGeometry x="70" y="270" width="50" height="80" as="geometry" />
        </mxCell>
      </root>
    </mxGraphModel>
  </diagram>
</mxfile>
